<svg fill="none" height="24" viewBox="0 0 24 24" width="24" xmlns="http://www.w3.org/2000/svg" xmlns:xlink="http://www.w3.org/1999/xlink"><clipPath id="a"><path d="m0 0h24v24h-24z"/></clipPath><g clip-path="url(#a)"><path clip-rule="evenodd" d="m20.5 10c-.1698 0-.3367.0121-.5.0354v-5.0354h-5.0354c.0233-.1633.0354-.33024.0354-.5s-.0121-.3367-.0354-.5c-.2427-1.69615-1.7014-3-3.4646-3-1.76324 0-3.22194 1.30385-3.46455 3-.02336.1633-.03545.33024-.03545.5s.01209.3367.03545.5h-5.03545v6.4839c.30124-.1497.64079-.2339 1-.2339.17185 0 .33919.0193.5.0558 1.00199.2273 1.75 1.1234 1.75 2.1942s-.74801 1.9669-1.75 2.1942c-.16081.0365-.32815.0558-.5.0558-.35921 0-.69876-.0842-1-.2339v6.4839h6.48388c-.1497-.3012-.23388-.6408-.23388-1 0-.1718.01927-.3392.05576-.5.22736-1.002 1.12344-1.75 2.19424-1.75s1.9669.748 2.1942 1.75c.0365.1608.0558.3282.0558.5 0 .3592-.0842.6988-.2339 1h6.4839v-5.0354c.1633.0233.3302.0354.5.0354s.3367-.0121.5-.0354c1.6962-.2427 3-1.7014 3-3.4646s-1.3038-3.2219-3-3.4646c-.1633-.0233-.3302-.0354-.5-.0354zm-7.0203-5.21239-.245 1.71239h5.2653v5.2653l1.7124-.245c.0932-.0133.1891-.0203.2876-.0203 1.1046 0 2 .8954 2 2s-.8954 2-2 2c-.0985 0-.1944-.007-.2876-.0203l-1.7124-.245v5.2653h-3.283c-.2445-1.8347-1.8155-3.25-3.717-3.25-1.90154 0-3.47251 1.4153-3.71696 3.25h-3.28304v-3.283c1.83468-.2445 3.25-1.8155 3.25-3.717s-1.41532-3.4725-3.25-3.71696v-3.28304h5.26527l-.24494-1.7124c-.01332-.09316-.02033-.18912-.02033-.2876 0-1.10457.8954-2 2-2s2 .89543 2 2c0 .09847-.007.19444-.0203.28761z" fill="#000" fill-rule="evenodd"/></g></svg>