<svg fill="none" height="24" viewBox="0 0 24 24" width="24" xmlns="http://www.w3.org/2000/svg"><g fill="#000"><path d="m16.5 9.91418c.3905-.39052.3905-1.02369 0-1.41421-.3905-.39053-1.0237-.39053-1.4142 0l-4.0858 4.08583-1.58578-1.5858c-.39053-.3906-1.02369-.3906-1.41422 0-.39052.3905-.39052 1.0237 0 1.4142l2.2929 2.2929c.3905.3905 1.0237.3905 1.4142 0z"/><path clip-rule="evenodd" d="m4.18772 4.47209c-.72225.321-1.18772 1.03724-1.18772 1.82762v6.70029c0 5.8766 6.34312 8.9341 8.379 9.764.4008.1634.8413.1634 1.242 0 2.0359-.8299 8.379-3.8874 8.379-9.764v-6.70029c0-.79038-.4655-1.50662-1.1877-1.82762l-7-3.11111c-.5172-.22984-1.1074-.22984-1.6246 0zm12.07278 13.79421c1.5977-1.3915 2.7395-3.1213 2.7395-5.2663v-6.70029l-7-3.11111-7 3.11111v6.70029c0 2.145 1.14184 3.8748 2.73955 5.2663 1.52901 1.3316 3.29735 2.1868 4.26045 2.5903.9631-.4035 2.7314-1.2587 4.2605-2.5903z" fill-rule="evenodd"/></g></svg>